PathFileType	4	(X/Y/Z)	C:\Users\°ÂÌØÂü\Desktop\20210112\bx_n_10_502-Unnamed.trc
DataRate	CameraRate	NumFrames	NumMarkers	Units	OrigDataRate	OrigDataStartFrame	OrigNumFrames
50.00	50.00	       7	0	mm	50.00	178	       473
Frame#	Time	
		

178	3.540	-498.79938	288.23209	1350.39929	-771.78479	239.71812	1035.54529	-863.63513	283.09091	865.59167	-742.60193	-8.66261	807.30823	-563.85724	104.58496	1166.48535	-843.51862	277.35010	731.52173	-847.10864	254.39101	627.60095	-485.88528	-56.39518	1353.69214	-955.52911	89.20260	1079.15381	-832.70538	251.05623	564.11359	-745.99261	15.51794	524.85895	-853.90094	262.65741	484.08185	-769.43719	210.17151	536.26453	-750.59998	214.84486	815.86676	-720.33441	159.63770	222.81532	-774.47870	231.24886	201.21382	-882.72955	295.84213	144.49216	-673.17267	51.14402	162.43687	-676.26923	176.88768	163.61911	-595.58685	222.25461	175.13113	-660.62256	299.67325	155.58806	-624.36041	306.61380	157.93561	-558.27075	255.63614	164.21495	-527.92841	303.81744	146.24832	-343.94397	126.92868	1621.82678	-788.52234	71.00258	566.42627	-517.88177	-72.85305	142.82225	-549.92786	-28.41224	162.95201	-799.00415	181.06294	180.73927				-793.96045	35.41092	171.83551	-725.54572	65.23978	219.42838	-828.53076	-50.19778	474.27655	-598.54077	25.22750	168.34151	-762.27911	-23.38063	202.87476	-875.95349	-78.78808	141.09819	-830.24255	-72.84551	865.59174	-826.68658	-65.21880	747.65601	-607.07043	-76.87032	156.13005	-648.55652	-69.24220	160.31064	-761.50433	-5.19807	1015.35907							-809.51648	-37.22075	608.16992	-806.17175	-35.08644	560.85291	
179	3.560	-504.73544	289.17590	1360.42065	-769.61877	240.84889	1037.81006	-860.82281	283.58029	865.89197	-739.39465	-8.39712	807.57190	-565.51666	104.62110	1174.81982	-840.92023	277.12448	732.09015	-845.32483	254.63054	627.89355	-493.26080	-55.92954	1363.20300	-953.98187	90.22630	1078.58826	-831.55237	251.23364	564.39954	-744.97186	16.28413	524.56543	-852.69983	262.68539	484.28625	-767.93011	210.98398	536.57043	-747.75745	215.82924	816.93884	-720.35504	159.93507	222.44576	-774.47577	231.49402	201.05583	-882.66815	295.89008	144.40199	-672.99396	51.38320	162.58693	-676.26923	176.88768	163.61911	-595.59662	222.49898	175.25352	-660.93396	299.66125	155.74602	-624.57440	306.75070	157.92883	-558.59723	255.54428	164.19949	-527.94812	303.98865	146.28252	-356.62167	126.10278	1635.89917	-785.81842	71.42672	566.64166	-517.94318	-72.77501	142.80957	-550.15271	-28.87956	162.98904	-799.01831	181.04301	180.72231				-793.83484	35.69080	171.67383	-725.51770	65.27266	219.20401	-827.17322	-49.60586	474.82614	-598.33234	25.14844	168.39865	-762.48322	-23.04334	203.00958	-875.93561	-78.84620	141.20265	-828.93054	-70.86411	865.38885	-824.33496	-64.65624	748.54285	-607.09442	-76.99758	156.21584	-648.73517	-69.16321	160.43481	-758.76996	-4.39069	1017.24152							-807.49225	-36.57966	608.24225	-804.69995	-34.75565	561.82294	
180	3.580	-511.27057	289.56894	1370.43274	-767.07715	242.16298	1039.90259	-857.60602	284.04443	866.32214	-736.46539	-7.24191	808.09515	-566.31360	105.40283	1184.03113	-838.23694	277.32443	732.30396	-843.62463	255.34666	628.35400	-500.17773	-55.78621	1373.18848	-951.73938	91.38187	1077.55920	-830.20190	251.88741	565.03229	-742.70099	15.72945	525.06873	-851.51831	263.21500	484.97006	-766.65448	211.70190	536.95398	-744.28241	217.06937	817.50385	-720.62378	159.94540	222.64659	-774.61432	231.56903	201.01955	-882.69702	295.94363	144.44814	-672.99396	51.38320	162.58693	-676.69360	176.45485	164.27904	-595.55200	222.55331	175.17119	-660.83875	299.59583	155.80736	-624.30920	306.75171	157.93970	-558.65576	255.53511	164.29190	-527.98743	303.91977	146.25874	-368.99295	125.42194	1649.54138				-517.97375	-72.67432	142.69385	-550.09973	-28.99793	162.97797	-799.25061	181.15735	180.86346				-793.77991	35.97441	171.92363	-724.35181	66.22757	219.88943	-825.81116	-48.73197	474.92233	-598.29816	25.00890	168.33875	-762.46588	-22.95001	203.22714	-875.84247	-79.09064	141.43521	-825.99347	-69.58778	865.93359	-822.15381	-63.50070	749.08716	-607.13354	-76.88912	156.28470	-648.61523	-69.20290	160.62906	-756.06348	-3.35577	1019.54102							-805.73956	-36.21338	608.96942	-802.52820	-33.79564	561.75549	
181	3.600	-517.62036	291.02023	1380.66248	-764.35010	243.07275	1041.73828	-854.55481	285.08734	867.29602	-733.85199	-6.87460	808.34210	-567.49670	106.04254	1192.55420	-835.94470	278.46640	733.32086	-841.20374	256.05688	628.57733	-506.41647	-56.87617	1383.61682	-949.88922	92.43602	1077.25281	-828.18451	252.48952	565.07672	-740.85516	16.23929	525.13287	-850.09808	263.76703	484.98157	-765.00232	212.20470	537.00372	-741.23901	218.45380	817.37140	-720.53931	160.03659	222.76169	-774.37537	231.67838	201.12045	-882.66626	296.00775	144.61252	-673.08942	51.65551	162.57314	-676.69360	176.45485	164.27904	-595.49963	222.53067	175.38477	-661.17175	299.58337	155.58614	-624.54657	306.99680	157.85907	-558.55450	255.51114	164.32875	-528.00122	303.99200	146.33350	-381.37427	124.62551	1662.92944				-518.00903	-73.29386	142.87527	-550.10840	-29.18690	163.05472	-799.25061	181.15735	180.86346				-793.78351	36.10206	172.03966	-724.02057	66.15132	219.76567	-824.54504	-48.47346	475.51151	-598.19757	25.15800	168.32428	-762.47491	-22.52277	203.40349	-875.74542	-78.80123	141.01654	-821.79199	-69.74893	867.45593	-819.89258	-62.22811	749.57312	-607.22272	-76.84416	156.19579	-648.67511	-68.96988	160.44507	-753.16608	-2.48661	1021.57977							-803.86249	-35.17625	608.91028	-800.93176	-33.32770	561.93231	
182	3.620	-524.33600	292.00089	1390.77234	-761.85840	244.18416	1043.51331	-851.14154	286.12225	867.70831	-730.88196	-5.98141	808.56799	-568.85095	107.23917	1201.68823	-833.20911	279.34879	734.04102	-838.88849	257.49884	629.49561	-513.78333	-56.37070	1392.58301	-947.50446	93.47478	1076.57605	-826.54779	253.51920	565.63422	-739.33276	17.00216	525.05292	-848.48108	264.68912	485.59763	-763.17145	212.66592	536.81525	-737.78528	219.73315	818.16785	-720.27466	160.35725	222.71571	-774.33319	231.85283	201.15154	-882.55035	295.97714	144.68227	-673.12018	51.55707	162.58386	-676.80170	176.49084	164.36414	-595.47876	222.55876	175.37955	-661.09918	299.72153	155.58167	-624.62177	307.18195	157.75795	-558.62537	255.43550	164.75296	-527.97791	303.98965	146.39313	-393.94931	124.03872	1675.50208				-517.88654	-73.19809	143.08044	-550.09564	-29.45921	163.08159	-799.10724	181.26241	180.93457				-793.71216	36.22535	172.03087	-724.16010	66.19452	219.79999	-822.69507	-47.50347	475.67856	-598.23547	24.98810	168.37561	-762.24677	-22.44818	203.43816	-875.79388	-78.47688	141.16841	-818.76996	-68.41008	867.90527	-817.32007	-61.44036	750.07019	-607.11951	-76.95065	156.24617	-648.65881	-68.85442	160.59319	-749.98267	-0.79965	1023.06549							-801.60126	-34.59056	609.57184	-799.16113	-32.30089	562.30237	
183	3.640	-531.31940	292.98056	1400.96570	-758.60291	245.52794	1045.30676	-847.92798	286.30991	867.77222	-727.99158	-4.97829	808.74109	-570.39581	108.01801	1209.83008	-830.28442	280.15308	734.94965	-836.66492	258.37854	629.99255	-520.69708	-56.39112	1401.39807	-945.43884	94.68325	1076.00781	-824.37610	254.29228	565.88794	-737.24744	17.75234	524.89288	-846.97382	265.36688	485.92154	-761.89191	213.17589	536.99799	-735.22150	220.55418	818.36139	-720.02264	160.35518	223.03931	-774.30487	232.25156	201.24603	-882.62256	296.06723	144.70044	-672.79486	51.81801	162.38931	-676.84033	176.35623	164.60544	-595.29321	222.54630	175.53719	-661.22528	299.96344	155.35503	-624.66553	307.54181	157.78990	-558.68243	255.81400	165.18805	-527.94812	303.98865	146.28252	-406.92786	123.14371	1688.02661				-517.91473	-73.16525	143.05896	-550.16870	-29.52033	163.09865	-799.09290	181.73570	180.78583				-793.67102	36.24951	172.08290	-724.09857	66.56654	219.24319	-821.75067	-47.13705	476.69086	-598.09216	24.97096	168.51956	-762.22986	-22.02477	203.59605	-875.88593	-78.64864	141.19731	-814.53943	-68.16000	868.84424	-813.92249	-61.24074	750.84296	-607.15149	-77.00042	156.17972	-648.73035	-68.97867	160.52235	-746.89130	-0.09796	1025.70313							-799.49750	-33.57763	609.85358	-797.14972	-32.24237	563.36084	
184	3.660	-537.90765	294.20209	1410.68372	-755.84344	246.51141	1046.84839	-844.42883	287.67581	868.49738	-724.98059	-3.65468	809.16675	-571.52863	109.28390	1218.21460	-827.38031	280.72647	735.23358	-834.40112	259.23672	630.61279	-528.01440	-56.45564	1409.91125	-942.92871	95.31381	1075.81372	-822.28619	255.39963	566.33539	-735.39154	18.34932	524.72107	-845.28833	266.37555	486.71750	-759.85706	213.93362	537.04443	-731.57428	221.80727	818.58405	-719.87860	160.31657	222.90631	-774.02936	232.24329	201.01048	-882.56836	295.96393	144.69005	-672.59882	52.04616	162.10904	-676.93555	176.23837	164.64693	-595.38470	222.62695	175.59958	-661.30280	299.78360	155.37857	-624.66986	307.54272	157.55321	-558.63983	255.69540	165.00691	-527.73505	303.88474	146.05376	-419.48065	122.36819	1699.79443	-775.19940	76.08514	568.39209	-517.89697	-73.06542	142.96361	-550.19141	-29.79919	162.88376	-799.14697	181.80649	180.89285				-793.79510	37.03699	172.28145	-723.61859	66.64032	219.05353	-820.13202	-45.81743	476.80304	-598.09442	24.83554	168.40988	-761.99780	-22.01469	204.01485	-875.77740	-78.62947	141.04330	-811.46381	-66.58211	869.14954	-811.57123	-59.06322	750.86951	-607.26282	-76.90998	156.37117	-648.90692	-69.10513	160.69507	-744.13013	1.36099	1027.22522							-797.17035	-32.55407	610.26208	-795.48627	-30.88250	563.33575	
